<svg width="60" height="54" viewBox="0 0 60 54" fill="none" xmlns="http://www.w3.org/2000/svg">
<g clip-path="url(#clip0_1_40)">
<path d="M60 24C60 7.43156 46.5684 -6 30 -6C13.4316 -6 0 7.43133 0 24C0 38.9738 10.9706 51.3851 25.3125 53.6355V32.6719H17.6953V24H25.3125V17.3906C25.3125 9.87188 29.7914 5.71875 36.6438 5.71875C39.9263 5.71875 43.3594 6.30469 43.3594 6.30469V13.6875H39.5766C35.8495 13.6875 34.6875 16.0001 34.6875 18.3727V24H43.0078L41.6777 32.6719H34.6875V53.6355C49.0294 51.3851 60 38.974 60 24Z" fill="#1B55A0"/>
<path d="M41.6777 32.6719L43.0078 24H34.6875V18.3727C34.6875 15.9998 35.8498 13.6875 39.5766 13.6875H43.3594V6.30469C43.3594 6.30469 39.9263 5.71875 36.6438 5.71875C29.7914 5.71875 25.3125 9.87188 25.3125 17.3906V24H17.6953V32.6719H25.3125V53.6355C26.8632 53.8786 28.4304 54.0004 30 54C31.5696 54.0005 33.1368 53.8786 34.6875 53.6355V32.6719H41.6777Z" fill="white"/>
</g>
<defs>
<clipPath id="clip0_1_40">
<rect width="60" height="60" fill="white" transform="translate(0 -6)"/>
</clipPath>
</defs>
</svg>
