<svg width="60" height="60" viewBox="0 0 60 60" fill="none" xmlns="http://www.w3.org/2000/svg">
<g clip-path="url(#clip0_1_51)">
<path d="M13.6364 59.7046V28.9554L6.44695 20.2312L0 15.3898V54.2782C0 57.2807 1.83398 59.7046 4.09102 59.7046H13.6364Z" fill="#4285F4"/>
<path d="M46.3636 59.7047H55.909C58.1728 59.7047 60 57.2717 60 54.2782V15.3902L52.6978 20.9353L46.3636 28.9555V59.7047Z" fill="#34A853"/>
<path d="M13.6364 28.9554L12.6581 16.9408L13.6364 5.44165L30 21.7206L46.3636 5.44165L47.4579 16.32L46.3636 28.9554L30 45.2344L13.6364 28.9554Z" fill="#EA4335"/>
<path d="M46.3636 5.44165V28.9554L60 15.3898V8.15471C60 1.44435 54.225 -2.38104 50.182 1.64331L46.3636 5.44165Z" fill="#FBBC04"/>
<path d="M0 15.3899L6.27164 21.6293L13.6364 28.9555V5.4417L9.81797 1.64336C5.76797 -2.3813 0 1.4444 0 8.15445V15.3896V15.3899Z" fill="#C5221F"/>
</g>
<defs>
<clipPath id="clip0_1_51">
<rect width="60" height="60" fill="white"/>
</clipPath>
</defs>
</svg>
