<svg width="155" height="56" viewBox="0 0 155 56" fill="none" xmlns="http://www.w3.org/2000/svg">
<path d="M61.1696 31.1427L69.7225 47.4284H62.9688L55.3571 32.4716V47.4284H49.8213V4.57156H55.3571V29.7716L62.3875 17.4284H69.4454L61.1696 31.1427ZM39.0267 16.5716C37.8146 16.5997 36.625 17.0822 35.5598 17.9778C34.4945 18.8735 33.5853 20.1555 32.91 21.7142V17.4284H27.6787V47.4284H33.2142V33.4142C33.1415 32.397 33.2048 31.3675 33.4002 30.3898C33.5955 29.4122 33.9188 28.5072 34.3498 27.7313C34.7808 26.9554 35.3103 26.3252 35.9054 25.8798C36.5005 25.4345 37.1484 25.1835 37.8088 25.1427C41.0196 25.1427 41.5179 30.0284 41.5179 33.4142V47.4284H47.0537V31.5284C47.0537 22.1 45.0329 16.5716 39.1375 16.5716H39.0267ZM88.5713 33.1142C88.5925 33.7423 88.5925 34.3719 88.5713 35H74.04V35.3C74.2759 37.0872 74.9154 38.6857 75.8437 39.8088C76.772 40.932 77.9284 41.5062 79.1054 41.4284C80.0391 41.4913 80.9714 41.2619 81.8465 40.7538C82.7216 40.2457 83.5215 39.4695 84.1983 38.4716L87.8796 42.7573C86.7128 44.6009 85.3095 46.0454 83.76 46.9976C82.2106 47.9498 80.5495 48.3886 78.8838 48.2858C77.5044 48.4208 76.1223 48.0958 74.8309 47.3329C73.5395 46.5699 72.3689 45.3868 71.3982 43.8633C70.4274 42.3398 69.6791 40.5115 69.2038 38.5019C68.7284 36.4923 68.5372 34.3481 68.6429 32.2142C68.6146 30.1077 68.8667 28.0147 69.3837 26.0657C69.9007 24.1167 70.6714 22.3534 71.6478 20.8859C72.6242 19.4183 73.7853 18.2778 75.0588 17.5356C76.3324 16.7933 77.691 16.4651 79.05 16.5716C84.2537 16.5716 88.5713 22.2716 88.5713 33.1142ZM83.4233 29.4284C83.403 28.5795 83.2712 27.746 83.036 26.9785C82.8009 26.211 82.4672 25.5257 82.0555 24.9643C81.6437 24.4029 81.1625 23.9772 80.641 23.7132C80.1196 23.4491 79.5689 23.3523 79.0224 23.4284C76.5885 23.0211 74.3843 25.6756 74.04 29.4284H83.4233ZM5.5358 4.57156H0V47.4284H16.6071V38.8578H5.5358V4.57156ZM105.179 4.57156H110.714V47.4284H105.483V44.4284C104.819 45.6957 103.972 46.7045 103.011 47.3743C102.05 48.0441 101.001 48.3563 99.9474 48.2858C98.6609 48.2346 97.3947 47.7766 96.2266 46.9399C95.0586 46.1031 94.0134 44.9054 93.1553 43.4202C92.2972 41.935 91.6444 40.1937 91.2369 38.3035C90.8294 36.4132 90.6759 34.4139 90.7858 32.4284C90.6551 30.4401 90.7932 28.4315 91.1911 26.5303C91.5891 24.6291 92.2383 22.877 93.0975 21.3855C93.9566 19.894 95.0068 18.6957 96.1814 17.8669C97.3559 17.0382 98.629 16.597 99.9196 16.5716C100.881 16.5063 101.841 16.738 102.744 17.2531C103.647 17.7681 104.474 18.5563 105.179 19.5716V4.57156ZM105.594 32.4284C105.681 31.4388 105.63 30.4318 105.444 29.4753C105.258 28.5188 104.943 27.635 104.518 26.8836C104.093 26.1322 103.569 25.5306 102.981 25.1194C102.393 24.7083 101.755 24.497 101.11 24.5C98.4619 24.7977 96.4554 28.3236 96.5983 32.4284C96.4554 36.5333 98.4619 40.0597 101.11 40.3573C101.755 40.3603 102.393 40.1491 102.981 39.7379C103.569 39.3267 104.093 38.725 104.518 37.9736C104.943 37.2221 105.259 36.3383 105.444 35.3818C105.63 34.4252 105.681 33.4181 105.594 32.4284ZM22.1429 3.71422C21.2527 3.73375 20.4005 4.27557 19.7583 5.23026C19.1161 6.18496 18.7318 7.4814 18.6829 8.85781C18.6829 11.8161 20.232 14.2147 22.1429 14.2147C24.0538 14.2147 25.6022 11.8156 25.6022 8.85781C25.5533 7.48157 25.169 6.18531 24.5269 5.23072C23.8848 4.27613 23.0327 3.73433 22.1426 3.71469L22.1429 3.71422ZM19.375 47.4284H24.9108V17.4284H19.375V47.4284ZM155 0.285781V51.7142C155 52.8509 154.708 53.941 154.189 54.7447C153.67 55.5485 152.966 56 152.232 56H119.018C118.284 56 117.58 55.5485 117.061 54.7447C116.542 53.941 116.25 52.8509 116.25 51.7142V0.285781C116.25 -0.850879 116.542 -1.94098 117.061 -2.74472C117.58 -3.54846 118.284 -4 119.018 -4H152.232C152.966 -4 153.67 -3.54846 154.189 -2.74472C154.708 -1.94098 155 -0.850879 155 0.285781ZM127.321 17.4284H121.786V47.4284H127.321V17.4284ZM128.013 8.85734C128.013 5.89859 126.464 3.5 124.554 3.5C122.643 3.5 121.094 5.89859 121.094 8.85734C121.094 11.8156 122.643 14.2142 124.554 14.2142C126.464 14.2142 128.013 11.8156 128.013 8.85734ZM149.464 31.5284C149.464 22.1 147.444 16.5716 141.548 16.5716C140.317 16.5717 139.105 17.0409 138.019 17.9378C136.933 18.8346 136.006 20.1316 135.32 21.7142V17.4284H130.089V47.4284H135.625V33.4142C135.552 32.397 135.616 31.3675 135.811 30.3898C136.006 29.4122 136.33 28.5072 136.761 27.7313C137.192 26.9554 137.721 26.3252 138.316 25.8798C138.911 25.4345 139.559 25.1835 140.22 25.1427C143.43 25.1427 143.929 30.0284 143.929 33.4142V47.4284H149.464V31.5284Z" fill="#0F58A0"/>
</svg>
